<svg width="28" height="28" viewBox="0 0 28 28" fill="none" xmlns="http://www.w3.org/2000/svg">
<path d="M23.9045 23.9048C29.3652 18.4441 29.3652 9.55634 23.9045 4.09572C18.4439 -1.36491 9.5561 -1.36491 4.09547 4.09572C-1.36516 9.55634 -1.36516 18.4441 4.09547 23.9048C9.5561 29.3654 18.4439 29.3654 23.9045 23.9048ZM5.08364 5.08388C10.0016 0.165891 17.9984 0.165891 22.9164 5.08388C27.8344 10.0019 27.8344 17.9986 22.9164 22.9166C17.9984 27.8346 10.0016 27.8346 5.08364 22.9166C0.165647 17.9986 0.171359 10.0019 5.08364 5.08388Z" fill="#EA4C89"/>
<path d="M14 19.2438C14.1942 19.2438 14.3655 19.1638 14.4969 19.0382C14.6226 18.9125 14.7025 18.7354 14.7025 18.5412V14.6971H18.5467C18.7409 14.6971 18.9122 14.6171 19.0436 14.4915C19.1693 14.3658 19.2492 14.1887 19.2492 13.9945C19.2492 13.6061 18.9351 13.292 18.5524 13.2977H14.7082V9.45353C14.7082 9.06511 14.3941 8.75096 14.0114 8.75667C13.623 8.75667 13.3088 9.07083 13.3145 9.45353V13.2977H9.47037C9.08196 13.2977 8.7678 13.6118 8.77351 13.9945C8.77351 14.3829 9.08767 14.6971 9.47037 14.6914H13.3145V18.5355C13.2974 18.9297 13.6115 19.2438 14 19.2438Z" fill="#EA4C89"/>
</svg>
