<svg width="17" height="28" viewBox="0 0 17 28" fill="none" xmlns="http://www.w3.org/2000/svg">
<path d="M16.5533 15.0926L4.09294 27.5527C3.80475 27.8411 3.42003 28 3.00983 28C2.59962 28 2.21491 27.8411 1.92671 27.5527L1.00909 26.6353C0.411993 26.0375 0.411993 25.0659 1.00909 24.4691L11.4724 14.0058L0.997484 3.53093C0.709292 3.24251 0.550171 2.85803 0.550171 2.44805C0.550171 2.03761 0.709292 1.65312 0.997484 1.36448L1.9151 0.447313C2.20352 0.158894 2.58801 0 2.99822 0C3.40842 0 3.79314 0.158894 4.08133 0.447313L16.5533 12.9188C16.8422 13.2082 17.0008 13.5945 16.9999 14.0051C17.0008 14.4174 16.8422 14.8035 16.5533 15.0926Z" fill="#EA4C89"/>
</svg>
