<svg width="80" height="80" viewBox="0 0 80 80" fill="none" xmlns="http://www.w3.org/2000/svg">
<g clip-path="url(#clip0_84:1242)">
<path fill-rule="evenodd" clip-rule="evenodd" d="M32.1514 8.09657L33.4755 3.87587C33.9105 2.47823 34.8831 1.31072 36.1791 0.630364C37.4751 -0.0499961 38.9884 -0.18744 40.3859 0.248287L71.9859 10.0966C74.8922 11.0075 76.5143 14.0975 75.6134 17.0069L60.0134 67.0483C59.282 69.4335 57.0299 71.0219 54.5376 70.9104L32.1514 8.09657Z" fill="url(#paint0_linear_84:1242)"/>
<path fill-rule="evenodd" clip-rule="evenodd" d="M48.2752 74.3724L48.6338 74.4276C51.6474 74.8347 54.425 72.7346 54.8545 69.7242L62.0132 17.7931C62.4203 14.7796 60.3201 12.002 57.3097 11.5724L24.5097 7.0483C23.0591 6.84807 21.5884 7.23273 20.4216 8.11754C19.2548 9.00235 18.4876 10.3147 18.289 11.7655L17.627 16.5518L48.2752 74.3724Z" fill="url(#paint1_linear_84:1242)"/>
<path d="M42.7584 16.5517H9.65494C6.60785 16.5517 4.1377 19.0219 4.1377 22.069V74.4828C4.1377 77.5298 6.60785 80 9.65494 80H42.7584C45.8055 80 48.2756 77.5298 48.2756 74.4828V22.069C48.2756 19.0219 45.8055 16.5517 42.7584 16.5517Z" fill="#71D17B"/>
<path d="M14.7386 52.642L14.2346 54H11.5886L15.5926 44.2H17.0206L20.9686 54H18.3226L17.8186 52.642H14.7386ZM16.2786 48.484L15.5646 50.388H16.9926L16.2786 48.484ZM22.9423 44.2H26.3863C27.749 44.2 28.799 44.564 29.5363 45.292C30.2737 46.02 30.6423 46.9207 30.6423 47.994C30.6423 48.6753 30.4743 49.282 30.1383 49.814C29.8117 50.3367 29.3403 50.7427 28.7243 51.032C29.0323 51.2747 29.4943 51.8627 30.1103 52.796L30.8803 54H28.2063L27.6603 53.16C27.371 52.7213 27.1703 52.432 27.0583 52.292C26.9557 52.152 26.8157 52.0353 26.6383 51.942C26.461 51.8487 26.2183 51.7973 25.9103 51.788H25.3223V54H22.9423V44.2ZM25.3223 46.44V49.534H26.6103C27.1517 49.534 27.581 49.408 27.8983 49.156C28.225 48.8947 28.3883 48.5073 28.3883 47.994C28.3883 47.4993 28.2203 47.1167 27.8843 46.846C27.5577 46.5753 27.133 46.44 26.6103 46.44H25.3223ZM36.9141 46.44V54H34.5341V46.44H32.0281V44.2H39.4201V46.44H36.9141Z" fill="white"/>
</g>
<defs>
<linearGradient id="paint0_linear_84:1242" x1="54.0068" y1="-0.00183105" x2="54.0068" y2="70.9159" gradientUnits="userSpaceOnUse">
<stop stop-color="#77C480"/>
<stop offset="1" stop-color="#4C7C51"/>
</linearGradient>
<linearGradient id="paint1_linear_84:1242" x1="39.8453" y1="6.99646" x2="24.5" y2="74" gradientUnits="userSpaceOnUse">
<stop stop-color="#77C680"/>
<stop offset="1" stop-color="#4A8050"/>
</linearGradient>
<clipPath id="clip0_84:1242">
<rect width="80" height="80" fill="white"/>
</clipPath>
</defs>
</svg>
