<svg width="39" height="39" viewBox="0 0 39 39" fill="none" xmlns="http://www.w3.org/2000/svg">
<path d="M19.5 39C30.2696 39 39 30.2696 39 19.5C39 8.73045 30.2696 0 19.5 0C8.73045 0 0 8.73045 0 19.5C0 30.2696 8.73045 39 19.5 39Z" fill="#627EEA"/>
<path d="M20.1074 4.875V15.6853L29.2444 19.7681L20.1074 4.875Z" fill="white" fill-opacity="0.602"/>
<path d="M20.1069 4.875L10.9688 19.7681L20.1069 15.6853V4.875Z" fill="white"/>
<path d="M20.1074 26.7736V34.119L29.2505 21.4696L20.1074 26.7736Z" fill="white" fill-opacity="0.602"/>
<path d="M20.1069 34.119V26.7724L10.9688 21.4696L20.1069 34.119Z" fill="white"/>
<path d="M20.1074 25.0733L29.2444 19.7681L20.1074 15.6877V25.0733Z" fill="white" fill-opacity="0.2"/>
<path d="M10.9688 19.7681L20.1069 25.0733V15.6877L10.9688 19.7681Z" fill="white" fill-opacity="0.602"/>
</svg>
