<svg width="72" height="80" viewBox="0 0 72 80" fill="none" xmlns="http://www.w3.org/2000/svg">
<path fill-rule="evenodd" clip-rule="evenodd" d="M28.1514 8.09657L29.4755 3.87587C29.9105 2.47823 30.8831 1.31072 32.1791 0.630364C33.4751 -0.0499961 34.9884 -0.18744 36.3859 0.248287L67.9859 10.0966C70.8922 11.0075 72.5143 14.0975 71.6134 17.0069L56.0134 67.0483C55.282 69.4335 53.0299 71.0219 50.5376 70.9104L28.1514 8.09657Z" fill="url(#paint0_linear_84_1244)"/>
<path fill-rule="evenodd" clip-rule="evenodd" d="M44.2752 74.3724L44.6338 74.4276C47.6474 74.8347 50.425 72.7346 50.8545 69.7242L58.0132 17.7931C58.4203 14.7796 56.3201 12.002 53.3097 11.5724L20.5097 7.0483C19.0591 6.84807 17.5884 7.23273 16.4216 8.11754C15.2548 9.00235 14.4876 10.3147 14.289 11.7655L13.627 16.5518L44.2752 74.3724Z" fill="url(#paint1_linear_84_1244)"/>
<path d="M38.7584 16.5517H5.65494C2.60785 16.5517 0.137695 19.0219 0.137695 22.069V74.4828C0.137695 77.5298 2.60785 80 5.65494 80H38.7584C41.8055 80 44.2756 77.5298 44.2756 74.4828V22.069C44.2756 19.0219 41.8055 16.5517 38.7584 16.5517Z" fill="#71D17B"/>
<path d="M10.7386 52.642L10.2346 54H7.58865L11.5926 44.2H13.0206L16.9686 54H14.3226L13.8186 52.642H10.7386ZM12.2786 48.484L11.5646 50.388H12.9926L12.2786 48.484ZM18.9423 44.2H22.3863C23.749 44.2 24.799 44.564 25.5363 45.292C26.2737 46.02 26.6423 46.9207 26.6423 47.994C26.6423 48.6753 26.4743 49.282 26.1383 49.814C25.8117 50.3367 25.3403 50.7427 24.7243 51.032C25.0323 51.2747 25.4943 51.8627 26.1103 52.796L26.8803 54H24.2063L23.6603 53.16C23.371 52.7213 23.1703 52.432 23.0583 52.292C22.9557 52.152 22.8157 52.0353 22.6383 51.942C22.461 51.8487 22.2183 51.7973 21.9103 51.788H21.3223V54H18.9423V44.2ZM21.3223 46.44V49.534H22.6103C23.1517 49.534 23.581 49.408 23.8983 49.156C24.225 48.8947 24.3883 48.5073 24.3883 47.994C24.3883 47.4993 24.2203 47.1167 23.8843 46.846C23.5577 46.5753 23.133 46.44 22.6103 46.44H21.3223ZM32.9141 46.44V54H30.5341V46.44H28.0281V44.2H35.4201V46.44H32.9141Z" fill="white"/>
<defs>
<linearGradient id="paint0_linear_84_1244" x1="50.0068" y1="-0.00183105" x2="50.0068" y2="70.9159" gradientUnits="userSpaceOnUse">
<stop stop-color="#77C480"/>
<stop offset="1" stop-color="#4C7C51"/>
</linearGradient>
<linearGradient id="paint1_linear_84_1244" x1="35.8453" y1="6.99646" x2="20.5" y2="74" gradientUnits="userSpaceOnUse">
<stop stop-color="#77C680"/>
<stop offset="1" stop-color="#4A8050"/>
</linearGradient>
</defs>
</svg>
