<svg width="52" height="69" viewBox="0 0 52 69" fill="none" xmlns="http://www.w3.org/2000/svg">
<path d="M46.1657 5.11848L13.2827 1.30412C10.2559 0.95302 7.51762 3.1221 7.16652 6.14889L1.12712 58.2136C0.776016 61.2404 2.94509 63.9787 5.97188 64.3298L38.8548 68.1441C41.8816 68.4953 44.62 66.3262 44.9711 63.2994L51.0105 11.2347C51.3616 8.20791 49.1925 5.46958 46.1657 5.11848Z" fill="#E85B67"/>
<path d="M14.174 37.7398L13.5169 39.0307L10.8886 38.7258L15.9951 29.4524L17.4136 29.617L20.2061 39.8066L17.5777 39.5017L17.2335 38.0947L14.174 37.7398ZM16.1829 33.7869L15.2543 35.596L16.6728 35.7605L16.1829 33.7869ZM23.2958 30.2993L26.7169 30.6961C28.0705 30.8531 29.0715 31.3357 29.7201 32.1438C30.3686 32.9519 30.631 33.8891 30.5074 34.9552C30.4289 35.632 30.1921 36.2153 29.797 36.7051C29.4123 37.1866 28.8973 37.5356 28.2521 37.752C28.5301 38.0286 28.9212 38.6659 29.4256 39.664L30.0517 40.9487L27.3955 40.6406L26.95 39.7432C26.7131 39.2742 26.5471 38.9636 26.452 38.8117C26.3661 38.6608 26.2405 38.5287 26.0751 38.4156C25.9097 38.3024 25.6746 38.2235 25.3697 38.1787L24.7856 38.111L24.5308 40.3082L22.1666 40.034L23.2958 30.2993ZM25.4019 32.7986L25.0453 35.872L26.3248 36.0204C26.8625 36.0828 27.3035 36.0071 27.6477 35.7933C28.0023 35.5714 28.2092 35.2054 28.2684 34.6955C28.3254 34.2042 28.2026 33.8047 27.9 33.4971C27.6067 33.1906 27.2005 33.0072 26.6813 32.947L25.4019 32.7986ZM36.9164 34.1343L36.0453 41.6439L33.6812 41.3697L34.5523 33.86L32.063 33.5713L32.3211 31.3462L39.6638 32.1979L39.4057 34.423L36.9164 34.1343Z" fill="white"/>
</svg>
