<svg width="80" height="80" viewBox="0 0 80 80" fill="none" xmlns="http://www.w3.org/2000/svg">
<g clip-path="url(#clip0_84:1207)">
<path d="M66.1506 49.6666V71.798L42.0753 80.3847L18 71.798V49.6666L42.0753 38L66.1506 49.6666Z" fill="#ED4596"/>
<path d="M41.839 37.6153V80L17.7637 71.4133V49.2819L41.839 37.6153Z" fill="#F777CE"/>
<path d="M12.9687 16.4764C12.2887 16.4764 11.7373 15.9251 11.7373 15.245V11.982C11.7373 11.302 12.2886 10.7506 12.9687 10.7506C13.6489 10.7506 14.2001 11.3019 14.2001 11.982V15.2451C14.2001 15.9251 13.6487 16.4764 12.9687 16.4764Z" fill="#F9D366"/>
<path d="M12.9687 25.2616C12.2887 25.2616 11.7373 24.7103 11.7373 24.0301V20.7672C11.7373 20.0872 12.2886 19.5358 12.9687 19.5358C13.6489 19.5358 14.2001 20.087 14.2001 20.7672V24.0303C14.2001 24.7101 13.6487 25.2616 12.9687 25.2616Z" fill="#F9D366"/>
<path d="M18.9926 19.2375H15.7295C15.0495 19.2375 14.498 18.6862 14.498 18.0061C14.498 17.3259 15.0493 16.7747 15.7295 16.7747H18.9926C19.6726 16.7747 20.224 17.3259 20.224 18.0061C20.224 18.6862 19.6726 19.2375 18.9926 19.2375Z" fill="#F9D366"/>
<path d="M10.2076 19.2375H6.94479C6.26479 19.2375 5.71338 18.6862 5.71338 18.0061C5.71338 17.3259 6.26463 16.7747 6.94479 16.7747H10.2079C10.8879 16.7747 11.4393 17.3259 11.4393 18.0061C11.4393 18.6862 10.8879 19.2375 10.2076 19.2375Z" fill="#F9D366"/>
<path d="M65.9143 37.6153L41.839 46.2019L17.7637 37.6153L41.839 29.0287L65.9143 37.6153Z" fill="#CEC1E8"/>
<path d="M41.839 29.0287V46.2019L17.7637 37.6153L41.839 29.0287Z" fill="#EDE6F5"/>
<path d="M74.2863 46.2958L65.9135 37.6155L41.8384 46.2019L50.211 54.882L74.2863 46.2958Z" fill="#EDE6F5"/>
<path d="M9.39062 46.2958L17.7633 37.6155L41.8386 46.2019L33.4658 54.882L9.39062 46.2958Z" fill="#CEC1E8"/>
<path d="M65.6227 15.62L67.9574 15.1467C69.0596 14.9233 69.0596 13.3481 67.9574 13.1247L65.6227 12.6514C63.3221 12.185 61.5241 10.3869 61.0577 8.08641L60.5844 5.75172C60.361 4.64953 58.7858 4.64953 58.5624 5.75172L58.0891 8.08641C57.6227 10.387 55.8246 12.185 53.5241 12.6514L51.1894 13.1247C50.0872 13.3481 50.0872 14.9233 51.1894 15.1467L53.5241 15.62C55.8247 16.0864 57.6227 17.8845 58.0891 20.185L58.5624 22.5197C58.7858 23.6219 60.361 23.6219 60.5844 22.5197L61.0577 20.185C61.5241 17.8844 63.3222 16.0864 65.6227 15.62Z" fill="#DD8833"/>
<path d="M40.2482 13.7252L43.2441 13.1177C44.6585 12.8308 44.6585 10.8095 43.2441 10.5227L40.2482 9.91516C37.2957 9.31656 34.9883 7.00922 34.3897 4.05672L33.7822 1.06078C33.4953 -0.353594 31.4739 -0.353594 31.1872 1.06078L30.5797 4.05672C29.9811 7.00922 27.6738 9.31656 24.7213 9.91516L21.7253 10.5227C20.311 10.8095 20.311 12.8308 21.7253 13.1177L24.7213 13.7252C27.6738 14.3238 29.9811 16.6311 30.5797 19.5836L31.1872 22.5795C31.4741 23.9939 33.4953 23.9939 33.7822 22.5795L34.3897 19.5836C34.9883 16.6311 37.2958 14.3238 40.2482 13.7252Z" fill="#CF8BFC"/>
<path d="M32.1772 38.662C31.6911 38.662 31.2301 38.372 31.0359 37.8939C27.9733 30.355 20.8036 23.3638 20.7315 23.2939C20.2429 22.8211 20.23 22.0416 20.7026 21.553C21.1753 21.0642 21.9545 21.0511 22.4434 21.5236C22.7528 21.8225 30.0558 28.9383 33.3175 36.9672C33.5734 37.5972 33.27 38.3155 32.6401 38.5714C32.4886 38.633 32.3315 38.662 32.1772 38.662Z" fill="#ED3561"/>
<path d="M37.7583 35.4605C37.0783 35.4605 36.5269 34.9092 36.5269 34.229V22.9011C36.5269 22.2211 37.0781 21.6697 37.7583 21.6697C38.4384 21.6697 38.9897 22.2209 38.9897 22.9011V34.229C38.9895 34.909 38.4383 35.4605 37.7583 35.4605Z" fill="#F9D366"/>
<path d="M51.7815 38.662C51.6272 38.662 51.4703 38.6328 51.3186 38.5712C50.6886 38.3153 50.3851 37.597 50.6412 36.967C52.0148 33.5861 54.262 29.9597 57.3209 26.1887C57.749 25.6606 58.5246 25.5795 59.0528 26.0081C59.5809 26.4364 59.6617 27.212 59.2334 27.74C57.2359 30.2027 54.5196 33.9633 52.9228 37.8937C52.7286 38.3722 52.2679 38.662 51.7815 38.662Z" fill="#F9D366"/>
<path d="M46.2018 35.4606C46.149 35.4606 46.0956 35.4572 46.0417 35.4503C45.3673 35.3626 44.8915 34.745 44.9792 34.0708L46.9623 18.8026C47.0498 18.1284 47.6673 17.6525 48.3418 17.7401C49.0162 17.8278 49.492 18.4455 49.4043 19.1197L47.4212 34.3878C47.3409 35.0083 46.8113 35.4606 46.2018 35.4606Z" fill="#CF8BFC"/>
</g>
<defs>
<clipPath id="clip0_84:1207">
<rect width="80" height="80" fill="white"/>
</clipPath>
</defs>
</svg>
