<svg width="28" height="28" viewBox="0 0 28 28" fill="none" xmlns="http://www.w3.org/2000/svg">
<path d="M20.4257 8.95828C19.8422 8.32123 18.9351 7.46138 18.5491 9.40289C18.4179 10.063 18.1112 10.5719 17.8485 10.9816C17.5652 9.54814 16.7131 8.06442 15.9102 7.06402C15.6097 6.68974 14.5436 5.20185 14.3388 2.7127C14.3083 2.3412 13.867 2.16675 13.591 2.41733C10.9533 4.81177 9.5055 8.10494 9.45175 11.8124C9.45175 11.8124 8.3534 10.8866 7.75671 9.16424C7.59603 8.70043 6.97424 8.61195 6.70446 9.02205C6.65267 9.1008 6.60466 9.17966 6.56135 9.25622C4.52626 12.8547 3.5473 17.2245 4.45232 21.2899C5.96553 28.0984 15.9752 30.0018 21.2744 25.7226C26.459 21.5359 24.8109 13.7435 20.4257 8.95828Z" fill="#ED694A"/>
<path d="M5.86092 21.7174C4.9664 17.6084 5.91326 13.1961 7.90055 9.54132C7.85029 9.42008 7.80194 9.29468 7.75677 9.16431C7.5961 8.7005 6.9743 8.61202 6.70453 9.02212C6.65274 9.10087 6.60478 9.17973 6.56147 9.25629C4.52638 12.8547 3.54742 17.2245 4.45245 21.29C5.14266 24.3955 7.60075 26.4798 10.5731 27.4232C8.25432 26.2999 6.43848 24.3744 5.86092 21.7174Z" fill="#D8553A"/>
<path d="M10.8673 11.7441C10.9771 8.37936 12.1941 5.36225 14.3723 3.04448C14.3573 2.91684 14.3462 2.80271 14.3391 2.71609C14.3079 2.34142 13.8827 2.15352 13.6079 2.40191C11.0603 4.70523 9.50751 7.9651 9.45178 11.8123L9.9286 12.1825C10.1634 12.3649 10.4816 12.357 10.7059 12.1899C10.8397 12.0765 10.8589 11.9053 10.8673 11.7441Z" fill="#D8553A"/>
<path d="M18.8257 13.9353C18.3948 13.4648 17.7247 12.8297 17.4397 14.2637C17.3428 14.7513 17.1162 15.1272 16.9222 15.4298C16.7131 14.371 16.0836 13.2751 15.4906 12.5362C15.2687 12.2598 14.4813 11.1608 14.3299 9.32218C14.3074 9.04776 13.9815 8.91897 13.7776 9.10404C11.8294 10.8726 10.7599 13.3051 10.7203 16.0434C10.7203 16.0434 9.909 15.3596 9.46833 14.0874C9.34966 13.7449 8.89034 13.6795 8.69111 13.9824C8.65289 14.0406 8.6174 14.0989 8.5854 14.1554C7.08221 16.8133 6.35913 20.0409 7.02758 23.0438C8.14528 28.0726 15.5386 29.4786 19.4527 26.3178C23.2821 23.2255 22.0648 17.4699 18.8257 13.9353Z" fill="#F4A32C"/>
<path d="M8.42155 23.4383C7.82973 20.5029 8.44272 17.3531 9.74237 14.7303C9.64333 14.5364 9.54948 14.322 9.46822 14.0875C9.34955 13.745 8.89023 13.6796 8.691 13.9825C8.65277 14.0406 8.61728 14.0989 8.58529 14.1555C7.08215 16.8134 6.35912 20.041 7.02746 23.0438C7.54732 25.3827 9.4248 26.9374 11.6781 27.6139C10.0772 26.811 8.81662 25.4004 8.42155 23.4383Z" fill="#E89528"/>
<path d="M17.3652 18.4791C17.0735 18.1606 16.6198 17.7306 16.4268 18.7015C16.3613 19.0315 16.2079 19.286 16.0765 19.4908C15.9349 18.774 15.5088 18.0322 15.1073 17.532C14.9572 17.3449 14.4241 16.601 14.3216 15.3563C14.3063 15.1706 14.0858 15.0833 13.9477 15.2087C12.6289 16.4059 11.905 18.0525 11.8781 19.9062C11.8781 19.9062 11.3289 19.4432 11.0306 18.5821C10.9503 18.3502 10.6394 18.306 10.5046 18.511C10.4786 18.5504 10.4547 18.5898 10.433 18.6281C9.41545 20.4273 8.92594 22.6122 9.37842 24.645C10.135 28.0492 15.1399 29.001 17.7894 26.8613C18.6967 26.1286 19.2593 25.0962 19.3734 23.9541C19.5456 22.2244 18.8799 20.1321 17.3652 18.4791Z" fill="#F4D44E"/>
<path d="M16.0097 22.6956C15.8472 22.5182 15.5945 22.2786 15.487 22.8195C15.4504 23.0034 15.365 23.1451 15.2918 23.2593C15.2129 22.8599 14.9755 22.4466 14.7519 22.168C14.6682 22.0637 14.3712 21.6492 14.3141 20.9558C14.3056 20.8523 14.1826 20.8038 14.1058 20.8735C13.3711 21.5405 12.9677 22.4579 12.9528 23.4906C12.9528 23.4906 12.6468 23.2327 12.4806 22.753C12.4358 22.6237 12.2626 22.5991 12.1875 22.7134C12.1731 22.7353 12.1597 22.7573 12.1477 22.7786C11.5808 23.781 11.3081 24.9983 11.5602 26.1308C12.1343 28.7137 16.8401 28.6354 17.1287 25.7458C17.2245 24.7822 16.8536 23.6165 16.0097 22.6956Z" fill="#EAE9E8"/>
<path d="M12.6527 26.6434C12.4006 25.6304 12.6733 24.5415 13.2402 23.6448C13.2523 23.6257 13.2657 23.6061 13.28 23.5865C13.3552 23.4842 13.5284 23.5063 13.5731 23.6218C13.7393 24.051 14.0453 24.2818 14.0453 24.2818C14.0576 23.5227 14.3326 22.8336 14.8376 22.281C14.7247 22.1246 14.3792 21.7474 14.314 20.9559C14.3055 20.8524 14.1826 20.8039 14.1057 20.8736C13.371 21.5407 12.9676 22.458 12.9527 23.4908C12.9527 23.4908 12.6467 23.2329 12.4805 22.7531C12.4358 22.6239 12.2625 22.5992 12.1874 22.7135C12.173 22.7355 12.1597 22.7575 12.1476 22.7788C11.5807 23.7811 11.308 24.9984 11.5601 26.131C11.7934 27.1807 12.7519 27.8116 13.8115 27.9638C13.2399 27.6831 12.8006 27.2386 12.6527 26.6434Z" fill="#F7E7A1"/>
<path d="M10.0952 3.72121C11.2778 2.75931 11.2752 0.959711 10.0952 0C8.91261 0.961844 8.91518 2.7615 10.0952 3.72121Z" fill="#D8553A"/>
<path d="M24.27 11.4414C25.4526 10.4795 25.4499 8.67986 24.27 7.72015C23.7294 8.15973 23.09 10.4817 24.27 11.4414Z" fill="#D8553A"/>
<path d="M3.32421 12.1738C4.17651 11.4805 4.17465 10.1836 3.32421 9.49182C2.93467 9.80863 2.47376 11.4821 3.32421 12.1738Z" fill="#D8553A"/>
<path d="M18.0857 6.40312C18.938 5.70985 18.9361 4.41293 18.0857 3.72119C17.2333 4.41441 17.2353 5.71143 18.0857 6.40312Z" fill="#D8553A"/>
<path d="M11.8076 15.6037C12.0033 13.293 12.8857 11.2384 14.3673 9.67214C14.3523 9.5586 14.3397 9.44207 14.3299 9.32225C14.3073 9.04782 13.9814 8.91903 13.7775 9.1041C12.2337 10.5055 11.2429 12.3242 10.8779 14.3813L10.8773 14.3811C10.8503 14.5337 10.8167 14.7559 10.7955 14.9306C10.7955 14.9307 10.7956 14.9308 10.7957 14.931C10.7513 15.2954 10.7256 15.6664 10.7202 16.0435C10.7614 16.0515 11.6948 16.5313 11.8076 15.6037Z" fill="#E89528"/>
<path d="M10.7423 25.1279C10.34 23.2288 10.6826 21.2038 11.4784 19.4491C11.3243 19.2329 11.1555 18.9425 11.0307 18.582C10.9503 18.3502 10.6395 18.3059 10.5045 18.5109C10.4787 18.5503 10.4546 18.5898 10.433 18.628C9.41545 20.4273 8.92594 22.6121 9.37842 24.6449C9.7328 26.2392 11.0189 27.2955 12.5584 27.7484C11.6623 27.1535 10.9844 26.273 10.7423 25.1279Z" fill="#E8C842"/>
<path d="M13.3302 19.0763C13.4635 18.1234 13.8532 17.0735 14.4668 16.1957C14.4 15.9478 14.3474 15.6678 14.3218 15.3563C14.3064 15.1706 14.0858 15.0833 13.9479 15.2087C13.1261 15.9547 12.5363 16.8755 12.2012 17.9118L12.2004 17.9115C12.1476 18.0744 12.0731 18.3441 12.0279 18.557C12.0283 18.5569 12.0287 18.5569 12.0291 18.5567C11.9365 18.9911 11.8851 19.442 11.8784 19.9061C12.6162 19.9982 13.2266 19.8155 13.3302 19.0763Z" fill="#E8C842"/>
</svg>
