<svg width="172" height="29" viewBox="0 0 172 29" fill="none" xmlns="http://www.w3.org/2000/svg">
<rect x="84" y="1" width="88" height="28" rx="7" fill="url(#paint0_linear_10_42)"/>
<path d="M3.888 8.552C5.552 6.872 7.568 6.032 9.936 6.032C12.304 6.032 14.32 6.872 15.984 8.552C17.664 10.216 18.504 12.232 18.504 14.6C18.504 16.968 17.664 18.992 15.984 20.672C14.32 22.336 12.304 23.168 9.936 23.168C7.568 23.168 5.552 22.336 3.888 20.672C2.224 18.992 1.392 16.968 1.392 14.6C1.392 12.232 2.224 10.216 3.888 8.552ZM13.68 10.688C12.672 9.664 11.424 9.152 9.936 9.152C8.448 9.152 7.2 9.664 6.192 10.688C5.2 11.712 4.704 13.016 4.704 14.6C4.704 16.2 5.2 17.512 6.192 18.536C7.2 19.544 8.448 20.048 9.936 20.048C11.44 20.048 12.688 19.544 13.68 18.536C14.688 17.512 15.192 16.2 15.192 14.6C15.192 13.016 14.688 11.712 13.68 10.688ZM28.3224 10.832C30.0184 10.832 31.3144 11.36 32.2104 12.416C33.1064 13.456 33.5544 14.872 33.5544 16.664V23H30.5064V16.856C30.5064 14.808 29.6184 13.784 27.8424 13.784C26.9304 13.784 26.2264 14.064 25.7304 14.624C25.2344 15.168 24.9864 16 24.9864 17.12V23H21.9384V11H23.9784L24.1944 12.872C25.0264 11.512 26.4024 10.832 28.3224 10.832ZM37.6678 23V6.2H40.7398V23H37.6678ZM46.6157 9.92C46.1197 9.92 45.6957 9.768 45.3437 9.464C45.0077 9.16 44.8397 8.784 44.8397 8.336C44.8397 7.888 45.0077 7.512 45.3437 7.208C45.6957 6.904 46.1197 6.752 46.6157 6.752C47.1277 6.752 47.5517 6.904 47.8877 7.208C48.2397 7.512 48.4157 7.888 48.4157 8.336C48.4157 8.784 48.2397 9.16 47.8877 9.464C47.5517 9.768 47.1277 9.92 46.6157 9.92ZM45.1037 23V11H48.1517V23H45.1037ZM58.8849 10.832C60.5809 10.832 61.8769 11.36 62.7729 12.416C63.6689 13.456 64.1169 14.872 64.1169 16.664V23H61.0689V16.856C61.0689 14.808 60.1809 13.784 58.4049 13.784C57.4929 13.784 56.7889 14.064 56.2929 14.624C55.7969 15.168 55.5489 16 55.5489 17.12V23H52.5009V11H54.5409L54.7569 12.872C55.5889 11.512 56.9649 10.832 58.8849 10.832ZM73.4383 10.832C75.9823 10.832 77.7423 11.912 78.7183 14.072C78.9583 14.6 79.0943 15.24 79.1263 15.992C79.1583 16.728 79.0863 17.344 78.9103 17.84H70.5343C70.5343 18.624 70.8143 19.24 71.3743 19.688C71.9503 20.136 72.6623 20.36 73.5103 20.36C74.8383 20.36 76.0463 20.08 77.1343 19.52L78.7423 21.272C77.0623 22.52 75.3183 23.144 73.5103 23.144C71.7023 23.144 70.2303 22.568 69.0943 21.416C67.9583 20.248 67.3903 18.776 67.3903 17C67.3903 15.24 67.9423 13.776 69.0463 12.608C70.1503 11.424 71.6143 10.832 73.4383 10.832ZM73.4383 13.616C72.6543 13.616 71.9983 13.848 71.4703 14.312C70.9583 14.776 70.6863 15.312 70.6543 15.92H76.1503C76.1503 15.568 76.0543 15.248 75.8623 14.96C75.3823 14.064 74.5743 13.616 73.4383 13.616ZM92.3177 8.552C93.9817 6.872 95.9977 6.032 98.3657 6.032C100.734 6.032 102.75 6.872 104.414 8.552C106.094 10.216 106.934 12.232 106.934 14.6C106.934 16.968 106.094 18.992 104.414 20.672C102.75 22.336 100.734 23.168 98.3657 23.168C95.9977 23.168 93.9817 22.336 92.3177 20.672C90.6537 18.992 89.8217 16.968 89.8217 14.6C89.8217 12.232 90.6537 10.216 92.3177 8.552ZM102.11 10.688C101.102 9.664 99.8537 9.152 98.3657 9.152C96.8777 9.152 95.6297 9.664 94.6217 10.688C93.6297 11.712 93.1337 13.016 93.1337 14.6C93.1337 16.2 93.6297 17.512 94.6217 18.536C95.6297 19.544 96.8777 20.048 98.3657 20.048C99.8697 20.048 101.118 19.544 102.11 18.536C103.118 17.512 103.622 16.2 103.622 14.6C103.622 13.016 103.118 11.712 102.11 10.688ZM115.792 10.856C117.712 10.856 119.288 11.592 120.52 13.064L118.696 15.032C117.816 14.216 116.848 13.808 115.792 13.808C114.944 13.808 114.216 14.104 113.608 14.696C113 15.288 112.696 16.056 112.696 17C112.696 17.944 113 18.712 113.608 19.304C114.216 19.896 114.944 20.192 115.792 20.192C116.848 20.192 117.816 19.784 118.696 18.968L120.52 20.936C119.288 22.408 117.712 23.144 115.792 23.144C114.08 23.144 112.624 22.544 111.424 21.344C110.24 20.144 109.648 18.696 109.648 17C109.648 15.304 110.24 13.856 111.424 12.656C112.624 11.456 114.08 10.856 115.792 10.856ZM129.102 10.832C131.646 10.832 133.406 11.912 134.382 14.072C134.622 14.6 134.758 15.24 134.79 15.992C134.822 16.728 134.75 17.344 134.574 17.84H126.198C126.198 18.624 126.478 19.24 127.038 19.688C127.614 20.136 128.326 20.36 129.174 20.36C130.502 20.36 131.71 20.08 132.798 19.52L134.406 21.272C132.726 22.52 130.982 23.144 129.174 23.144C127.366 23.144 125.894 22.568 124.758 21.416C123.622 20.248 123.054 18.776 123.054 17C123.054 15.24 123.606 13.776 124.71 12.608C125.814 11.424 127.278 10.832 129.102 10.832ZM129.102 13.616C128.318 13.616 127.662 13.848 127.134 14.312C126.622 14.776 126.35 15.312 126.318 15.92H131.814C131.814 15.568 131.718 15.248 131.526 14.96C131.046 14.064 130.238 13.616 129.102 13.616ZM149.376 23H147.336L147.168 21.296C146.192 22.528 144.864 23.144 143.184 23.144C141.504 23.144 140.104 22.552 138.984 21.368C137.88 20.184 137.328 18.728 137.328 17C137.328 15.272 137.88 13.816 138.984 12.632C140.104 11.432 141.504 10.832 143.184 10.832C144.864 10.832 146.192 11.456 147.168 12.704L147.336 11H149.376V23ZM143.472 20.192C144.304 20.192 145.024 19.896 145.632 19.304C146.256 18.712 146.568 17.944 146.568 17C146.568 16.056 146.256 15.288 145.632 14.696C145.024 14.088 144.304 13.784 143.472 13.784C142.64 13.784 141.912 14.088 141.288 14.696C140.68 15.288 140.376 16.056 140.376 17C140.376 17.944 140.68 18.712 141.288 19.304C141.896 19.896 142.624 20.192 143.472 20.192ZM159.854 10.832C161.55 10.832 162.846 11.36 163.742 12.416C164.638 13.456 165.086 14.872 165.086 16.664V23H162.038V16.856C162.038 14.808 161.15 13.784 159.374 13.784C158.462 13.784 157.758 14.064 157.262 14.624C156.766 15.168 156.518 16 156.518 17.12V23H153.47V11H155.51L155.726 12.872C156.558 11.512 157.934 10.832 159.854 10.832Z" fill="white"/>
<defs>
<linearGradient id="paint0_linear_10_42" x1="84" y1="15" x2="172" y2="15" gradientUnits="userSpaceOnUse">
<stop stop-color="#95B0FD"/>
<stop offset="1" stop-color="#E929F8"/>
</linearGradient>
</defs>
</svg>
