<svg width="10" height="6" viewBox="0 0 10 6" fill="none" xmlns="http://www.w3.org/2000/svg">
<path d="M4.6098 5.84052L0.159755 1.3904C0.0567475 1.28747 0 1.15007 0 1.00357C0 0.857067 0.0567475 0.71967 0.159755 0.616744L0.487394 0.289023C0.700889 0.075773 1.04788 0.075773 1.26105 0.289023L4.99793 4.0259L8.73895 0.284877C8.84196 0.181951 8.97928 0.125122 9.1257 0.125122C9.27228 0.125122 9.4096 0.181951 9.51269 0.284877L9.84025 0.612598C9.94325 0.715605 10 0.852921 10 0.999424C10 1.14593 9.94325 1.28332 9.84025 1.38625L5.38614 5.84052C5.2828 5.94369 5.14484 6.00036 4.99817 6.00003C4.85094 6.00036 4.71305 5.94369 4.6098 5.84052Z" fill="#A9A8A8"/>
</svg>
