<svg width="24" height="18" viewBox="0 0 24 18" fill="none" xmlns="http://www.w3.org/2000/svg">
<path d="M12.0003 5.72729C10.1948 5.72729 8.72754 7.19455 8.72754 9.00002C8.72754 10.8055 10.1948 12.2728 12.0003 12.2728C13.8057 12.2728 15.273 10.8055 15.273 9.00002C15.273 7.19455 13.8057 5.72729 12.0003 5.72729Z" fill="#A2A2A2"/>
<path d="M12 0.818115C6.54546 0.818115 1.88729 4.21081 0 8.99994C1.88729 13.789 6.54546 17.1818 12 17.1818C17.46 17.1818 22.1128 13.789 24.0001 8.99994C22.1128 4.21081 17.46 0.818115 12 0.818115ZM12 14.4545C8.98911 14.4545 6.54546 12.0108 6.54546 8.99989C6.54546 5.98898 8.98911 3.54537 12 3.54537C15.0109 3.54537 17.4546 5.98903 17.4546 8.99994C17.4546 12.0109 15.0109 14.4545 12 14.4545Z" fill="#B5B5B5"/>
</svg>
